<svg width="151" height="189" viewBox="0 0 151 189" fill="none" xmlns="http://www.w3.org/2000/svg">
<path d="M142.821 150.57H39.0083C37.1208 150.57 35.8625 149.31 35.8625 147.42V32.1299C35.8625 30.2399 37.1208 28.9799 39.0083 28.9799H142.192C144.079 28.9799 145.337 30.2399 145.337 32.1299V148.05C145.967 149.31 144.079 150.57 142.821 150.57ZM49.7042 120.33L129.608 121.59L131.496 44.0999L47.8167 42.2099L49.7042 120.33ZM131.496 122.85H50.3333C48.4458 122.85 47.1875 121.59 47.1875 119.7V44.0999C47.1875 42.2099 48.4458 40.9499 50.3333 40.9499H131.496C133.383 40.9499 134.642 42.2099 134.642 44.0999V119.7C134.642 121.59 133.383 122.85 131.496 122.85ZM53.4792 116.55H128.35V47.2499H53.4792V116.55Z" fill="#47588A"/>
<path d="M26.425 122.22H8.17918C6.29168 122.22 5.03335 120.96 5.03335 119.07V3.77988C5.03335 1.88988 6.29168 0.629883 8.17918 0.629883H111.992C113.879 0.629883 115.138 1.88988 115.138 3.77988V22.0499C115.138 23.9399 113.879 25.1999 111.992 25.1999H101.296C99.4084 25.1999 98.15 23.9399 98.15 22.0499V18.2699H22.65V87.5699H26.425C28.3125 87.5699 29.5708 88.8299 29.5708 90.7199C29.5708 95.1299 29.5708 100.8 29.5708 105.84V119.07C29.5708 120.33 28.3125 122.22 26.425 122.22ZM91.8584 6.92988H108.846H11.325V115.92V109.62V103.95C11.325 100.17 11.325 97.0199 11.325 93.2399V89.4599C9.43751 89.4599 11.325 86.9399 11.325 85.0499V15.7499C11.325 13.8599 9.43751 3.77988 11.325 3.77988" fill="#47588A"/>
</svg>
