<?xml version="1.0" encoding="utf-8"?>
<!-- Generator: Adobe Illustrator 23.0.1, SVG Export Plug-In . SVG Version: 6.00 Build 0)  -->
<svg version="1.1" id="Calque_1" xmlns="http://www.w3.org/2000/svg" xmlns:xlink="http://www.w3.org/1999/xlink" x="0px" y="0px"
	 viewBox="0 0 24 30" style="enable-background:new 0 0 24 30;" xml:space="preserve">
<style type="text/css">
	.st0{opacity:0.2;}
	.st1{display:none;fill:none;stroke:#000000;stroke-linecap:round;stroke-linejoin:round;stroke-miterlimit:10;}
</style>
<path class="st0" d="M22.7,23.9H6.2c-0.3,0-0.5-0.2-0.5-0.5V5.1c0-0.3,0.2-0.5,0.5-0.5h16.4c0.3,0,0.5,0.2,0.5,0.5v18.4
	C23.2,23.7,22.9,23.9,22.7,23.9z M7.9,19.1l12.7,0.2L20.9,7L7.6,6.7L7.9,19.1z M20.9,19.5H8c-0.3,0-0.5-0.2-0.5-0.5V7
	c0-0.3,0.2-0.5,0.5-0.5h12.9c0.3,0,0.5,0.2,0.5,0.5v12C21.4,19.3,21.2,19.5,20.9,19.5z M8.5,18.5h11.9v-11H8.5V18.5z"/>
<path class="st0" d="M4.2,19.4H1.3c-0.3,0-0.5-0.2-0.5-0.5V0.6c0-0.3,0.2-0.5,0.5-0.5h16.5c0.3,0,0.5,0.2,0.5,0.5v2.9
	c0,0.3-0.2,0.5-0.5,0.5h-1.7c-0.3,0-0.5-0.2-0.5-0.5V2.9h-12v11h0.6c0.3,0,0.5,0.2,0.5,0.5c0,0.7,0,1.6,0,2.4l0,2.1
	C4.7,19.1,4.5,19.4,4.2,19.4z M14.6,1.1h2.7H1.8v17.3v-1v-0.9c0-0.6,0-1.1,0-1.7v-0.6c-0.3,0,0-0.4,0-0.7v-11c0-0.3-0.3-1.3,0-1.3"
	/>
<path class="st1" d="M1.3,18.9"/>
</svg>
