<svg width="36" height="64" viewBox="0 0 36 64" fill="none" xmlns="http://www.w3.org/2000/svg">
<path d="M34.43 2.00005C34.0585 1.62815 33.6174 1.33311 33.1318 1.13181C32.6462 0.930516 32.1257 0.826904 31.6 0.826904C31.0743 0.826904 30.5538 0.930516 30.0682 1.13181C29.5827 1.33311 29.1415 1.62815 28.77 2.00005L1.58001 29.17C1.2081 29.5415 0.913066 29.9827 0.711769 30.4683C0.510472 30.9539 0.40686 31.4744 0.40686 32.0001C0.40686 32.5257 0.510472 33.0462 0.711769 33.5318C0.913066 34.0174 1.2081 34.4586 1.58001 34.8301L28.77 62.0001C29.1381 62.3868 29.5799 62.6959 30.0693 62.9092C30.5587 63.1225 31.0859 63.2357 31.6198 63.2421C32.1537 63.2484 32.6834 63.1479 33.1778 62.9463C33.6722 62.7447 34.1212 62.4461 34.4984 62.0683C34.8756 61.6904 35.1733 61.2409 35.374 60.7461C35.5747 60.2514 35.6744 59.7215 35.6671 59.1876C35.6598 58.6538 35.5457 58.1268 35.3315 57.6377C35.1173 57.1487 34.8074 56.7074 34.42 56.34L10.06 32.0001L34.42 7.66005C34.7926 7.28922 35.0884 6.84858 35.2905 6.36335C35.4927 5.87811 35.5972 5.35779 35.5982 4.83212C35.5991 4.30646 35.4964 3.78577 35.296 3.29982C35.0955 2.81388 34.8013 2.3722 34.43 2.00005V2.00005Z" fill="white"/>
</svg>
