<svg width="19" height="21" viewBox="0 0 19 21" fill="none" xmlns="http://www.w3.org/2000/svg">
<path d="M4.7085 9.54167H6.62516V11.4583H4.7085V9.54167ZM4.7085 13.375H6.62516V15.2917H4.7085V13.375ZM8.54183 9.54167H10.4585V11.4583H8.54183V9.54167ZM8.54183 13.375H10.4585V15.2917H8.54183V13.375ZM12.3752 9.54167H14.2918V11.4583H12.3752V9.54167ZM12.3752 13.375H14.2918V15.2917H12.3752V13.375Z" fill="#3750B2"/>
<path d="M2.79167 20.0833H16.2083C17.2654 20.0833 18.125 19.2237 18.125 18.1667V6.66667V4.75C18.125 3.69296 17.2654 2.83333 16.2083 2.83333H14.2917V0.916666H12.375V2.83333H6.625V0.916666H4.70833V2.83333H2.79167C1.73462 2.83333 0.875 3.69296 0.875 4.75V6.66667V18.1667C0.875 19.2237 1.73462 20.0833 2.79167 20.0833ZM16.2083 6.66667L16.2093 18.1667H2.79167V6.66667H16.2083Z" fill="#3750B2"/>
</svg>
