<svg width="15" height="18" viewBox="0 0 15 18" fill="none" xmlns="http://www.w3.org/2000/svg">
<path d="M3.53125 8.09998H5.13515V9.9H3.53125V8.09998ZM3.53125 11.7H5.13515V13.5H3.53125V11.7ZM6.73906 8.09998H8.34296V9.9H6.73906V8.09998ZM6.73906 11.7H8.34296V13.5H6.73906V11.7ZM9.94686 8.09998H11.5508V9.9H9.94686V8.09998ZM9.94686 11.7H11.5508V13.5H9.94686V11.7Z" fill="#47588A" fill-opacity="0.8"/>
<path d="M1.92714 18H13.1545C14.039 18 14.7584 17.1927 14.7584 16.2V5.4V3.6C14.7584 2.6073 14.039 1.8 13.1545 1.8H11.5506V0H9.94666V1.8H5.13495V0H3.53105V1.8H1.92714C1.04259 1.8 0.323242 2.6073 0.323242 3.6V5.4V16.2C0.323242 17.1927 1.04259 18 1.92714 18ZM13.1545 5.4L13.1553 16.2H1.92714V5.4H13.1545Z" fill="#47588A" fill-opacity="0.8"/>
</svg>
