<svg width="52" height="40" viewBox="0 0 52 40" fill="none" xmlns="http://www.w3.org/2000/svg">
<path d="M32.0848 28.3151C30.3431 29.7799 28.2391 30.6202 26 30.6202C21.171 30.6202 17.1964 26.7733 16.5849 22.3905H20.6503L15.4879 15.7499L10.5029 22.3905H14.4181C15.0418 27.9686 19.9587 32.7499 26 32.7499C28.7758 32.7499 31.4679 31.745 33.5804 29.9319L33.8952 29.6451L32.3547 28.0963L32.0848 28.3151Z" fill="white"/>
<path d="M33.9334 12.4144C31.7834 10.4521 28.9659 9.3811 25.9997 9.3811C23.2239 9.3811 20.5319 10.3846 18.4194 12.1975L18.1045 12.4701L19.645 14.012L19.915 13.7854C21.6319 12.3415 23.7927 11.527 25.9997 11.527C30.8265 11.527 34.8017 15.3516 35.4149 20H31.345L36.5042 26.8033L41.5014 20H37.5819C37.2842 17.3437 35.9971 14.2976 33.9334 12.4144Z" fill="white"/>
<path d="M47.4492 7.25H39.2514C34.9874 2.46875 33.6442 0.875 32.0098 0.875H20.2559C18.6204 0.875 17.3118 2.46875 13.0148 7.25H11.2578V5.125H6.74219V7.25H4.94922C2.60574 7.25 0.5 9.00538 0.5 11.3252V34.7026C0.5 37.0224 2.60574 39.125 4.94922 39.125H47.4492C49.7927 39.125 51.5 37.0224 51.5 34.7025V11.3252C51.5 9.00538 49.7927 7.25 47.4492 7.25ZM49.375 34.7025C49.375 35.9327 48.5477 37 47.4492 37H4.94922C3.7887 37 2.625 35.8493 2.625 34.7025V11.3252C2.625 10.2407 3.70423 9.375 4.94922 9.375H13.0148C13.0148 9.375 13.5625 9.375 13.8293 9.375C14.0961 9.375 14.2576 9.34857 14.5954 8.95C14.9331 8.55143 15.6183 7.62081 16.067 7.11785C17.5672 5.43565 18.6511 4.20727 19.4292 3.51438C20.0596 2.95325 20.2541 3 20.256 3H32.0099C32.012 3 32.2239 2.95179 32.9009 3.56034C33.7165 4.29359 34.8539 5.7969 36.4282 7.57101C36.8117 8.00331 37.3863 8.64812 37.6656 8.95757C37.9449 9.26702 38.2303 9.375 38.432 9.375C38.6338 9.375 39.2515 9.375 39.2515 9.375H47.4492C48.6222 9.375 49.375 10.1672 49.375 11.3252V34.7025Z" fill="white"/>
</svg>
