<svg width="46" height="41" viewBox="0 0 46 41" fill="none" xmlns="http://www.w3.org/2000/svg">
<path d="M23 16.25C19.3415 16.25 16.25 19.3415 16.25 23C16.25 26.6585 19.3415 29.75 23 29.75C26.6585 29.75 29.75 26.6585 29.75 23C29.75 19.3415 26.6585 16.25 23 16.25Z" fill="#47588A"/>
<path d="M41 7.25H35.1815L29.0907 1.15925C28.67 0.73625 28.0985 0.5 27.5 0.5H18.5C17.9015 0.5 17.33 0.73625 16.9093 1.15925L10.8185 7.25H5C2.51825 7.25 0.5 9.26825 0.5 11.75V36.5C0.5 38.9818 2.51825 41 5 41H41C43.4818 41 45.5 38.9818 45.5 36.5V11.75C45.5 9.26825 43.4818 7.25 41 7.25ZM23 34.25C16.9025 34.25 11.75 29.0975 11.75 23C11.75 16.9025 16.9025 11.75 23 11.75C29.0975 11.75 34.25 16.9025 34.25 23C34.25 29.0975 29.0975 34.25 23 34.25Z" fill="#47588A"/>
</svg>
