<svg width="17" height="19" viewBox="0 0 17 19" fill="none" xmlns="http://www.w3.org/2000/svg">
<path d="M16.1668 14.2917V4.70833C16.1668 2.63067 12.6565 0.875 8.50016 0.875C4.34387 0.875 0.833496 2.63067 0.833496 4.70833V14.2917C0.833496 16.3693 4.34387 18.125 8.50016 18.125C12.6565 18.125 16.1668 16.3693 16.1668 14.2917ZM8.50016 2.79167C12.0374 2.79167 14.184 4.23587 14.2502 4.70258C14.184 5.18079 12.0374 6.625 8.50016 6.625C4.96295 6.625 2.81629 5.18079 2.75016 4.71408C2.81629 4.23587 4.96295 2.79167 8.50016 2.79167ZM2.75016 7.20671C4.16754 8.01842 6.23562 8.54167 8.50016 8.54167C10.7647 8.54167 12.8328 8.01842 14.2502 7.20671V9.49425C14.184 9.97246 12.0374 11.4167 8.50016 11.4167C4.96295 11.4167 2.81629 9.97246 2.75016 9.5V7.20671ZM2.75016 14.2917V11.9984C4.16754 12.8101 6.23562 13.3333 8.50016 13.3333C10.7647 13.3333 12.8328 12.8101 14.2502 11.9984V14.2859C14.184 14.7641 12.0374 16.2083 8.50016 16.2083C4.96295 16.2083 2.81629 14.7641 2.75016 14.2917Z" fill="#3750B2"/>
</svg>
