<svg width="23" height="21" viewBox="0 0 23 21" fill="none" xmlns="http://www.w3.org/2000/svg">
<path fill-rule="evenodd" clip-rule="evenodd" d="M22.3652 10.0803C19.4555 13.6073 15.6378 15.75 11.4527 15.75C7.26763 15.75 3.44841 13.6073 0.540283 10.0803C3.44897 6.55068 7.2682 4.40994 11.4527 4.40994C15.6373 4.40994 19.4555 6.55069 22.3652 10.0803ZM15.8055 10.0803C15.8055 7.59994 13.8554 5.59341 11.4527 5.59341C9.04854 5.59341 7.09846 7.59993 7.09846 10.0803C7.09846 12.559 9.04853 14.5665 11.4527 14.5665C13.8554 14.5665 15.8055 12.5588 15.8055 10.0803Z" fill="black"/>
<path fill-rule="evenodd" clip-rule="evenodd" d="M13.0756 10.0803C13.0756 9.15582 12.3476 8.40588 11.4529 8.40588C10.5552 8.40588 9.82666 9.15522 9.82666 10.0803C9.82666 11.0043 10.5552 11.7547 11.4529 11.7547C12.347 11.7545 13.0756 11.0041 13.0756 10.0803Z" fill="black"/>
<path d="M2 20L21 1" stroke="black" stroke-width="2"/>
</svg>
