<svg width="23" height="12" viewBox="0 0 23 12" fill="none" xmlns="http://www.w3.org/2000/svg">
<path fill-rule="evenodd" clip-rule="evenodd" d="M22.3652 6.08028C19.4555 9.60731 15.6378 11.75 11.4527 11.75C7.26763 11.75 3.44841 9.6073 0.540283 6.08028C3.44897 2.55068 7.2682 0.409943 11.4527 0.409943C15.6373 0.409943 19.4555 2.55069 22.3652 6.08028ZM15.8055 6.08028C15.8055 3.59994 13.8554 1.59341 11.4527 1.59341C9.04854 1.59341 7.09846 3.59993 7.09846 6.08028C7.09846 8.55903 9.04853 10.5665 11.4527 10.5665C13.8554 10.5665 15.8055 8.55884 15.8055 6.08028Z" fill="black"/>
<path fill-rule="evenodd" clip-rule="evenodd" d="M13.0757 6.08027C13.0757 5.15581 12.3477 4.40588 11.453 4.40588C10.5553 4.40588 9.82678 5.15522 9.82678 6.08027C9.82678 7.00432 10.5553 7.75465 11.453 7.75465C12.3472 7.75446 13.0757 7.00412 13.0757 6.08027Z" fill="black"/>
</svg>
