<?xml version="1.0" encoding="utf-8"?>
<!-- Generator: Adobe Illustrator 23.0.1, SVG Export Plug-In . SVG Version: 6.00 Build 0)  -->
<svg version="1.1" id="Calque_1" xmlns="http://www.w3.org/2000/svg" xmlns:xlink="http://www.w3.org/1999/xlink" x="0px" y="0px"
	 viewBox="0 0 512 640" style="enable-background:new 0 0 512 640;" xml:space="preserve">
<style type="text/css">
	.st0{fill:#47588A;}
</style>
<path class="st0" d="M466.5,249.9l-198-198c-3.8-3.8-8.8-5.9-14.1-5.9s-10.4,2.1-14.1,5.9L41.5,250.6c-7.8,7.8-7.8,20.5,0,28.3
	c3.9,3.9,9,5.9,14.1,5.9s10.2-2,14.1-5.9l36.2-36.2v191.2c0,14.7,12.4,27.1,27,27.1h66V319.9c0-5.7,5.2-9.9,10.9-9.9h90.2
	c5.7,0,9.9,4.2,9.9,9.9V461h66c14.3,0,26-12.1,26-27.1V242l36.2,36.2c7.8,7.8,20.5,7.8,28.3,0C474.3,270.4,474.3,257.7,466.5,249.9z
	"/>
</svg>
