<?xml version="1.0" encoding="utf-8"?>
<!-- Generator: Adobe Illustrator 23.0.1, SVG Export Plug-In . SVG Version: 6.00 Build 0)  -->
<svg version="1.1" id="Calque_1" xmlns="http://www.w3.org/2000/svg" xmlns:xlink="http://www.w3.org/1999/xlink" x="0px" y="0px"
	 viewBox="0 0 113.5 42" style="enable-background:new 0 0 113.5 42;" xml:space="preserve">
<style type="text/css">
	.st0{fill:#3F55A1;}
	.st1{fill:#F07274;}
</style>
<path class="st0" d="M12.6,35.8c0,0-22.1-36.2,10.4-27.5c0,0,14.6,5,28.3,13.5c0,0,14.4,8.4,27.9,10c0,0-16.7,3.2-38.9-6.9
	C40.2,24.7,19.9,15.6,12.6,35.8z"/>
<path class="st1" d="M56.1,18.9c0,0,13.2,0.8,24-4.5c0,0,17.6-8.6,23.2-7.3c0,0,8.5,1.7,5.8,9.3c0,0-4.1,10.8-21.9,12.1
	C87.2,28.7,76,30,56.1,18.9z"/>
</svg>
