<svg width="17" height="21" viewBox="0 0 17 21" fill="none" xmlns="http://www.w3.org/2000/svg">
<path opacity="0.7" d="M15.5833 9.1H14.5208V6.125C14.5208 2.74785 11.7403 0 8.32292 0C4.90556 0 2.125 2.74785 2.125 6.125V9.1H1.41667C0.634312 9.1 0 9.72685 0 10.5V19.6C0 20.3732 0.634312 21 1.41667 21H15.5833C16.3657 21 17 20.3732 17 19.6V10.5C17 9.72685 16.3657 9.1 15.5833 9.1ZM9.5625 16.45C9.5625 17.0299 9.08685 17.5 8.5 17.5C7.91315 17.5 7.4375 17.0299 7.4375 16.45V13.65C7.4375 13.07 7.91315 12.6 8.5 12.6C9.08685 12.6 9.5625 13.07 9.5625 13.65V16.45ZM4.25 9.1V6.125C4.25 3.90565 6.07715 2.1 8.32292 2.1C10.5687 2.1 12.3958 3.90565 12.3958 6.125V9.1H4.25Z" fill="#3750B2"/>
</svg>
