<?xml version="1.0" encoding="utf-8"?>
<!-- Generator: Adobe Illustrator 23.0.1, SVG Export Plug-In . SVG Version: 6.00 Build 0)  -->
<svg version="1.1"
	 id="Calque_1" xmlns:cc="http://creativecommons.org/ns#" xmlns:dc="http://purl.org/dc/elements/1.1/" xmlns:inkscape="http://www.inkscape.org/namespaces/inkscape" xmlns:rdf="http://www.w3.org/1999/02/22-rdf-syntax-ns#" xmlns:sodipodi="http://sodipodi.sourceforge.net/DTD/sodipodi-0.dtd" xmlns:svg="http://www.w3.org/2000/svg"
	 xmlns="http://www.w3.org/2000/svg" xmlns:xlink="http://www.w3.org/1999/xlink" x="0px" y="0px" viewBox="0 0 25.4 31.8"
	 style="enable-background:new 0 0 25.4 31.8;" xml:space="preserve">
<style type="text/css">
	.st0{fill:#47588A;}
</style>
<g transform="translate(0,-271.59998)">
	<path class="st0" d="M12.7,272.7c-3.4,0-6.1,2.7-6.1,6.1s2.7,6.1,6.1,6.1s6.1-2.7,6.1-6.1S16.1,272.7,12.7,272.7z"/>
	<path class="st0" d="M8.5,284.5c-4.4,1.7-7.5,5.9-7.5,10.9c0,0.3,0.2,0.5,0.5,0.5c0,0,0,0,0,0h22.2c0.3,0,0.5-0.2,0.5-0.5
		c0,0,0,0,0,0c0-5-3.1-9.2-7.5-10.9c-1.2,0.8-2.6,1.3-4.2,1.3C11.2,285.9,9.7,285.4,8.5,284.5z"/>
</g>
</svg>
